<?xml version="1.0" standalone="no"?>
<!DOCTYPE svg PUBLIC "-//W3C//DTD SVG 20010904//EN"
 "http://www.w3.org/TR/2001/REC-SVG-20010904/DTD/svg10.dtd">
<svg version="1.0" xmlns="http://www.w3.org/2000/svg"
 width="678.000000pt" height="965.000000pt" viewBox="0 0 678.000000 965.000000"
 preserveAspectRatio="xMidYMid meet">

<g transform="translate(0.000000,965.000000) scale(0.100000,-0.100000)"
fill="#000000" stroke="none">
<path d="M630 6163 l0 -3138 1377 -1377 1378 -1378 1377 1377 1378 1378 0
3137 0 3138 -2755 0 -2755 0 0 -3137z m1100 2469 c0 -150 -6 -208 -54 -543
-29 -206 -163 -1145 -297 -2086 -134 -942 -247 -1713 -251 -1713 -5 0 -8 1015
-8 2255 l0 2255 305 0 305 0 0 -168z m3920 -2087 c0 -1240 -3 -2255 -8 -2255
-4 0 -117 771 -251 1713 -134 941 -268 1880 -297 2086 -48 335 -54 393 -54
543 l0 168 305 0 305 0 0 -2255z m-3630 -930 l0 -1885 -210 0 -210 0 0 -467 0
-468 -110 110 c-103 103 -110 112 -110 150 -1 49 91 708 99 715 4 3 89 586
189 1295 271 1906 347 2435 350 2435 1 0 2 -848 2 -1885z m3081 -545 c101
-712 186 -1297 189 -1300 9 -7 101 -666 100 -715 0 -38 -7 -47 -110 -150
l-110 -110 0 468 0 467 -210 0 -210 0 1 1888 1 1887 83 -570 c45 -313 165
-1153 266 -1865z m-2350 1865 c22 -148 76 -451 120 -672 65 -326 79 -412 74
-455 -4 -29 -40 -222 -81 -428 -40 -206 -91 -496 -113 -645 -22 -148 -44 -297
-49 -330 -6 -38 -10 495 -10 1430 0 935 4 1468 10 1430 5 -33 27 -181 49 -330z
m1328 -1102 c-1 -939 -5 -1466 -11 -1428 -5 33 -27 182 -49 330 -22 149 -73
439 -114 645 -40 206 -76 400 -80 430 -4 45 9 125 70 430 66 326 149 821 171
1018 3 34 8 62 10 62 2 0 3 -669 3 -1487z m-670 875 c5 -35 35 -239 66 -454
l55 -391 -35 -203 c-19 -112 -51 -282 -70 -380 -19 -97 -36 -187 -36 -201 l-2
-24 -4 25 c-2 14 -20 104 -38 201 -19 97 -51 267 -70 379 l-35 203 55 391 c72
501 74 516 90 516 8 0 17 -23 24 -62z m-215 -1270 c4 -24 45 -308 92 -633 47
-324 89 -610 93 -635 l7 -45 6 45 c12 84 177 1225 184 1268 10 65 31 53 39
-23 4 -36 10 -65 14 -65 4 0 15 -60 25 -132 28 -211 113 -818 156 -1120 22
-152 40 -284 40 -292 0 -14 -51 -16 -465 -16 -414 0 -465 2 -465 16 0 8 18
140 40 292 43 302 128 909 156 1120 10 72 21 132 25 132 4 0 10 29 14 65 8 76
29 88 39 23z m906 -2890 l0 -743 -357 -357 -358 -358 -357 357 -358 358 0 742
0 743 715 0 715 0 0 -742z m-1780 180 l0 -553 -200 200 -200 200 0 352 0 353
200 0 200 0 0 -552z m2530 199 l0 -352 -200 -200 -200 -200 0 553 0 552 200 0
200 0 0 -353z"/>
</g>
</svg>
